<?xml version="1.0" encoding="utf-8"?>
<!-- Generator: Adobe Illustrator 24.0.1, SVG Export Plug-In . SVG Version: 6.00 Build 0)  -->
<svg version="1.1" id="Layer_1" xmlns="http://www.w3.org/2000/svg" xmlns:xlink="http://www.w3.org/1999/xlink" x="0px" y="0px"
	 viewBox="0 0 229.18 278.32" style="enable-background:new 0 0 229.18 278.32;" xml:space="preserve">
<style type="text/css">
	.st0{fill:#D5E1EA;}
</style>
<path id="Path_402" class="st0" d="M225.31,0.41L227.08,0c-7.97,0.41-15.92,1.2-23.85,2.39l-0.53-1.11
	c-1.04,0.97-4.28,1.41-7.13,1.86c-2.85,0.45-5.29,0.96-4.69,1.86c-0.69-0.01-1.39,0.04-2.07,0.15c-0.79,0.13-1.65,0.31-2.55,0.52
	c-1.8,0.42-3.73,0.94-5.44,1.44c-1.36,0.42-2.76,0.75-4.17,0.97c-0.95,0.12-1.36-0.09-0.87-0.83c-6.6,1.88-13.02,4.31-19.22,7.25
	c-5.94,2.69-12.22,5.54-21.08,9.26c-3.5,0.61-9.38,3.27-15.6,6.73c-6.22,3.47-12.75,7.79-17.86,11.29
	c-4.83,3.67-9.13,7.13-13.07,10.61c-2,1.7-3.86,3.46-5.74,5.15c-1.84,1.74-3.66,3.45-5.43,5.21c-7.67,7.57-14.87,15.59-21.58,24.01
	c-5.8,4.79-11.31,12.3-16.22,20.3c-4.92,8.01-9.23,16.46-13.58,23.16l-0.54,2.18l-0.48,2.19c-3.15,4.32-5.87,10.45-8.48,17.16
	c-2.61,6.71-5.11,14.03-8.06,20.9c-0.29,1.82-0.53,3.19-0.73,4.21s-0.31,1.7-0.4,2.12c0.23-0.64,0.68-1.57,1.43-1.69
	c-0.4,0.98-0.78,2.25-1.18,3.58c-0.39,1.33-0.78,2.72-1.11,3.97c-0.69,2.5-1.34,4.38-1.93,3.94l0.12-1.08
	c-0.29-0.23-0.61,0.44-0.9,1.66c-0.3,1.22-0.58,2.98-0.9,4.9c-0.3,1.93-0.58,4.03-0.94,5.91c-0.24,1.61-0.63,3.19-1.19,4.72
	l1.86-2.33l-0.76,3.94c-0.25,1.31-0.46,2.63-0.68,3.94l0.01-2.16c-0.83,17.46-1.42,29.93-1.53,42.28c-0.06,6.3,0.24,12.59,0.9,18.85
	c0.32,2.99,0.75,5.96,1.3,8.91h161.28c-0.3-0.66-0.63-1.34-0.92-2.05c-1.25-2.38-1.95-5-2.07-7.68c-0.48-0.63-0.9-1.3-1.25-2
	c0.02,0.24-0.08,0.64-0.7,0.94c-0.01-1.57-1.25-4.44,0.12-4.53l0.23,0.34c0.68-0.05,0.27-1.11-0.21-2.41
	c-0.42-1.31-0.9-2.87-0.48-3.79l-1.27,1.15l-0.14-1.44l-0.05-1.44l0.37,0.72c-0.57-1.38-1.04-2.8-1.39-4.25
	c-0.28-1.28-0.48-2.58-0.61-3.89c-0.07-1.24-0.07-2.43-0.04-3.59c0.01-0.29,0.02-0.58,0.03-0.86c0.03-0.29,0.06-0.57,0.08-0.85
	c0.07-0.56,0.13-1.12,0.19-1.68c0.53-4.47,1.26-8.66,0.95-14.74c0.65,0.92,0.54,0.31,0.5-0.51c-0.01-0.82,0.05-1.85,0.92-1.73
	c0.61-0.48,1.06-1.14,1.3-1.88c0.2-0.65,0.27-1.33,0.21-2.01c-0.08-1.37-0.56-2.81-0.41-4.06c-0.12-0.05-0.21-0.14-0.25-0.26
	c0.54-1.34,1.01-2.69,1.64-3.99c0.55,1.58,0.41,0.7,0.24-0.22s-0.36-1.9,0.07-0.45c2.8-4.91,5.65-10.62,9.22-16.23
	c3.48-5.69,7.8-10.82,12.82-15.22l-0.8-0.02c0.61-0.54,1.23-1.16,1.84-1.8l1.94-1.82c1.1-1.12,2.43-2,3.89-2.57
	c1.2-0.52,2.19-1.42,2.81-2.56c0.43-0.87,0.95-1.69,1.55-2.45c0.75-0.96,1.83-1.6,3.03-1.82c0.72-0.09,1.17,0.05,1.07,0.22v0.01
	c1.12-0.82,2.01-2.01,3.16-3.05c1.29-1.3,2.92-2.21,4.7-2.63c0.51,0.27,1.36,0.02,2.36-0.49c1.01-0.48,2.2-1.17,3.36-1.86
	c0.55-0.34,1.13-0.66,1.71-0.94c0.5-0.25,1.01-0.47,1.53-0.67c0.91-0.33,1.57-0.39,1.75,0.11l-0.01-0.19
	c1.32-0.01,2.64-0.22,3.9-0.61c1.25-0.35,2.48-0.73,3.72-1.17c1.26-0.45,2.55-0.8,3.86-1.06c0.4-0.08,0.81-0.15,1.22-0.2V0.45
	C226.96,0.71,225.08,1.09,225.31,0.41z"/>
</svg>
