<?xml version="1.0" encoding="utf-8"?>
<!-- Generator: Adobe Illustrator 24.0.1, SVG Export Plug-In . SVG Version: 6.00 Build 0)  -->
<svg version="1.1" id="Layer_1" xmlns="http://www.w3.org/2000/svg" xmlns:xlink="http://www.w3.org/1999/xlink" x="0px" y="0px"
	 viewBox="0 0 338.82 354.3" style="enable-background:new 0 0 338.82 354.3;" xml:space="preserve">
<style type="text/css">
	.st0{fill:none;}
	.st1{fill:#FCC642;}
</style>
<rect x="862.27" y="-32.42" class="st0" width="441" height="354"/>
<path id="Path_402" class="st1" d="M338.8,37.88c-0.03-2.33-0.05-4.68-0.08-7.18c-0.05-2.51-0.11-5.17-0.18-8.13
	c-0.06-2.96-0.24-6.23-0.38-9.95c-0.09-1.86-0.24-3.82-0.37-5.92c-0.12-2.01-0.27-4.14-0.48-6.4c-0.01-0.1-0.02-0.2-0.03-0.3
	l-0.03,0.3l-0.32,3.07c-0.21-1.03-0.41-2.06-0.61-3.07H110.19c0.36,0.96,0.81,1.42,1.25,1.75c0.93,0.64,1.92,0.54,2.03,2.47
	c-0.11,1.69-0.22,3.35-0.46,5.03c-0.38-1.49-0.88-2.94-1.36-4.39c0.13,1.16,0.24,2.15,0.29,3.05c0.03,0.9,0.03,1.7,0.02,2.48
	c-0.04,1.54-0.08,2.96-0.28,4.86c0.02,0,0.05,0.03,0.06,0.03c0.03-0.26,0.08-0.44,0.19-0.5l0.19,0.59v0.01
	c1.06,0.29,2.28,2.45,2.9,5.61c0.25,2.28,0.93,4.22,1.37,6.56c0.21,1.29,0.32,2.59,0.35,3.89c0.01,0.72-0.01,1.48-0.07,2.3
	c-0.09,0.82-0.23,1.69-0.43,2.61l2.15,1.66c-0.14,0.94-0.24,1.86-0.4,2.79l-0.53,2.77l-1.6,0.04c-0.08-3.49-0.39-6.97-0.92-10.43
	c-0.32-1.97-0.66-3.99-0.98-5.93c-0.42-1.93-0.8-3.78-1.12-5.44l-0.74,0.02c0.34,1.97,0.92,4.04,1.4,5.96
	c0.39,1.66,0.67,3.34,0.86,5.03c-0.06,0.43-0.16,0.86-0.3,1.27c-0.18,0.46-0.41,0.91-0.69,1.32c-0.43,0.59-0.95,0.87-1.45,0.38
	l1.36,1.8c0.36,3.3,0.37,5.8,0.45,7.89c0.06,1.83,0.01,3.66-0.16,5.48c-0.07,0.85-0.15,1.7-0.25,2.61
	c-0.11,0.92-0.32,1.87-0.51,2.93c-0.21,1.06-0.45,2.23-0.71,3.56c-0.29,1.32-0.72,2.78-1.14,4.44l0.94-1.07
	c0.1,1.29,0.1,2.58-0.02,3.88c-0.19,1.1-0.55,1.92-1.26,2.18c-1.64,8.08-5.04,16.02-8.73,20.2c0.47,0.58,0.94,1.16,1.37,1.73
	c-0.74,1.58-4.3,2.87-2.17,4.65c-0.2,1.24-0.49,2.45-0.73,3.69c-0.44,0.95-0.79,1.94-1.04,2.96c-0.37,1.09-1.04,2.06-1.92,2.8
	l-0.01,0.01c-0.13,0.12-0.28,0.24-0.43,0.35c0.05,0.02,0.1,0.04,0.15,0.05c-1.56,2.18-1.22,2.35-0.91,2.61
	c0.3,0.26,0.52,0.6-1.49,2.99c-1.06,0.51-0.82,1.28-0.54,2.24c0.45,1.08,0.26,2.32-0.49,3.22l-3.89,1.06
	c-1.67,1.27-2.91,3.02-3.55,5.02c-0.41,1.02-0.87,2.03-1.39,3.01c-0.73,1.43-1.64,2.76-2.7,3.96c-3.19,2.23-6,2.01-6-1.1
	c-0.01,1.03-0.12,2.07-0.32,3.08c-0.51,1.06-1.07,2.1-1.69,3.1c-1.2-0.21-1.02-0.71-1.01-2.05c-1.77,1-2.02,1.59-2.12,2.18
	c0,0.87-0.41,1.68-1.09,2.21l-0.01,0.01c0.7,1.98,2.04,4.93,1.4,5.72l1.27-0.39c-0.41,0.77-0.89,1.5-1.44,2.18
	c-0.54,0.71-1.13,1.37-1.76,2c-0.64,0.66-1.34,1.26-2.1,1.78c-0.8,0.54-1.64,1-2.52,1.39l-0.49-0.85c-0.97,0.95-1.9,1.97-2.92,2.87
	l-0.94-0.85c-1.5,1.2-2.96,2.47-4.49,3.63l0.85-0.15c-0.52,0.44-1.67,1.34-3,2.25c-0.67,0.45-1.37,0.91-2.07,1.3
	c-0.66,0.35-1.35,0.63-2.06,0.84l-0.26-0.64c-1.7,0.42-3.34,1.04-4.89,1.85c-1.51,0.76-2.96,1.63-4.33,2.62l-4.48,2.91
	c-0.8,0.53-1.64,1.01-2.5,1.43c-0.88,0.44-1.8,0.88-2.77,1.3l0.52-1.72c-1.57-0.12-1.55,0.45-1.58,1.13
	c-0.03,0.69-0.08,1.5-1.83,1.72l-0.73-1.57c-1.04,1.54-2.01,1.74-2.97,1.53c-0.95-0.21-1.91-0.82-3.01-0.97l1.57,1.9l-3.86,0.6
	c-0.77,0.12-1.56,0.07-2.31-0.15c-0.41-0.15-0.74-0.48-0.87-0.9c-0.11-0.78-0.02-1.57,0.25-2.3c-0.76,0.8-1.54,1.57-2.33,2.37
	l-0.99-1.82c-1.51,2.7-2.06,0.18-5.37,2c-0.43-0.68,0.39-1.27-0.87-1.37l-2.69,1.91l-2.78,1.77c1.15-0.58,2.3-1.09,3.41-1.72
	l0.02,2.95c-1.1,0.96-2.54,1.44-3.99,1.34V354.3h144.07c2.84-1.55,5.73-3.11,8.7-4.52c4.2-2.18,6.79-3.61,8.56-4.4
	c1.04-0.53,2.15-0.91,3.29-1.14c1.29-0.19,1.6,0.33,5.94-1.76c10.46-5.86-2.77,0.16,1.21-2.52l6.43-3.22l6.37-3.37
	c-6.77,4.86-2.64,2.89-1.12,2.4c5.2-3.41,11.98-7.73,17.65-11.78c2.79-2.08,5.35-4.02,7.25-5.77c1.89-1.76,3.17-3.26,3.51-4.34
	c3.38-2.5,5.88-4.43,7.92-5.87c2.01-1.49,3.48-2.56,4.72-3.44c2.36-1.58,4.57-3.36,6.61-5.32c-1.02,0.69-2.46,1.8-3.69,2.7
	c-1.23,0.9-2.28,1.54-2.46,1.38c2.84-1.9,3.33-2.56,2.91-2.44c-1.04,0.46-2.02,1.05-2.91,1.76c0.86-0.95,2.11-2.23,3.69-3.71
	c1.58-1.48,3.49-3.14,5.51-5.02s4.3-3.82,6.52-5.93c2.25-2.09,4.58-4.23,6.78-6.41c8.89-8.62,16.46-17.21,16.03-18.9l0.38,0.3
	c-0.11-3.1-3.94-1.23-0.48-7.55l3.5-3.32l1.76-3.14l1.69-3.18c3.26-3.58,2.35-1.35,2.55-1.21c1.5-2.52,3.11-5.3,4.97-8.13
	c1.83-2.86,3.76-5.87,5.72-8.95c1.94-3.1,3.98-6.22,5.86-9.42c1.94-3.16,3.75-6.36,5.45-9.47c-1.97,1.8-3.89,3.6-5.87,5.35
	l-5.96,5.17c3.43-4.82,8.26-11.63,11.87-17.79c1.64-2.66,3.13-5.41,4.48-8.23c1.09-2.27,1.65-3.98,1.49-4.7
	c1.49-1.93,3.02-3.86,4.5-5.82c1.52-2.6,2.75-4.8,3.73-6.69c0.95-1.89,1.63-3.47,2.16-4.79c0.78-1.75,1.27-3.61,1.44-5.51
	c0.15-2.48-0.56-3.33,1.47-7.66c1.84-3.59,3.75-7.19,5.47-10.87c-1.1,3.84-2.39,7.62-3.62,11.42l3.08-7.24l2.4-5.82
	c0.79-1.81,1.5-3.56,2.26-5.41c0.76-1.86,1.61-3.82,2.49-6.08c-0.02,0-0.01-0.11-0.02-0.12l-0.01,0.01
	c-0.23,0.62-0.42,1.01-0.56,1.07l0.35-1.65c-0.3-0.83-0.24-2.81,0.14-5.61c0.39-2.79,0.98-6.43,1.9-10.57
	c0.62-2.94,1.13-5.74,1.58-8.57c0.4-2.85,0.8-5.72,1.23-8.82c0.79-6.2,1.96-13.23,3.75-22.73c-0.53-1.65-1.06-3.29-1.64-4.92
	l1.03-7.14l0.86-7.17l1.6,0.04c-0.24,7.08-0.67,17.3-1.66,27.99c-1,10.68-2.54,21.85-4.32,30.81l0.66,0.46
	c0.5-2.67,0.99-5.43,1.42-8.2c0.38-2.77,0.75-5.53,1.1-8.17c0.3-2.65,0.58-5.19,0.84-7.51c0.28-2.32,0.45-4.42,0.7-6.2
	c0.7-3.05,2.65-10.4,3.44-7.22l-0.76-5.24c0.56-9.06,0.81-15.88,0.85-21.6C338.87,47.17,338.78,42.56,338.8,37.88z"/>
</svg>
